<svg width="100" height="100" viewBox="0 0 100 100" fill="none" xmlns="http://www.w3.org/2000/svg">
<g clip-path="url(#clip0_48_63)">
<path fill-rule="evenodd" clip-rule="evenodd" d="M68.789 93.8529C63.8865 96.3422 25.7271 86.9767 18.3219 66.4647C15.4505 58.5317 22.2167 42.7611 35.4851 26.3383C37.6734 23.6306 39.1968 21.787 40.9223 18.868C41.0387 18.6863 39.6072 19.4266 37.7275 20.5462C33.277 23.197 30.7145 23.8619 29.14 22.7588C28.3858 22.2156 28.6407 21.8578 30.3096 21.1072C35.1005 18.9651 39.3267 15.7177 44.4929 10.1501C46.525 7.96607 50.3578 6.91896 48.5079 14.2188C46.9429 20.3938 46.4836 24.2439 46.6459 30.3638C46.7435 34.3315 44.6859 35.8754 43.1059 33.0341C42.5572 32.0501 42.3776 27.8504 42.6897 23.4701L42.857 21.2359C37.4775 27.9229 37.1175 28.3245 33.154 33.9621C23.7468 47.3735 19.8543 58.3803 22.1724 65.07C28.0497 81.9794 53.8237 88.9102 69.1119 92.949C69.531 93.0551 69.3527 93.5732 68.789 93.8529Z" fill="#A46139"/>
</g>
<defs>
<clipPath id="clip0_48_63">
<rect width="81.0862" height="81.0862" fill="white" transform="matrix(0.245661 -0.969356 -0.969356 -0.245661 79.5073 99.427)"/>
</clipPath>
</defs>
</svg>
