<svg width="70" height="54" viewBox="0 0 70 54" fill="none" xmlns="http://www.w3.org/2000/svg">
<path d="M29.1339 2.47937C24.2157 0.00685394 23.316 0.52459 10.9605 12.4847C-0.615382 23.6398 -1.27508 24.5595 1.12405 26.0545C5.4425 28.8146 7.30177 27.7796 20.557 15.187C31.3531 4.89445 32.0129 3.91688 29.1339 2.47937Z" fill="#A46139"/>
<path d="M32.5285 50.5357C32.6436 44.7153 32.4934 44.826 17.0034 36.1999C5.55995 29.8427 2.27098 28.965 1.88847 31.9772C1.52103 35.2766 1.95116 35.6933 16.1934 44.3452C29.6561 52.5625 32.4757 54.1078 32.5285 50.5357Z" fill="#A46139"/>
<path d="M40.8661 51.5206C45.7843 53.9931 46.684 53.4753 59.0395 41.5153C70.6154 30.3602 71.2751 29.4404 68.8759 27.9454C64.5575 25.1854 62.6982 26.2203 49.443 38.8129C38.6469 49.1055 37.9871 50.0831 40.8661 51.5206Z" fill="#A46139"/>
<path d="M37.4715 3.46425C37.3564 9.28468 37.5066 9.1739 52.9966 17.8C64.4401 24.1572 67.729 25.035 68.1115 22.0227C68.479 18.7234 68.0488 18.3066 53.8066 9.65476C40.3439 1.4374 37.5243 -0.107826 37.4715 3.46425Z" fill="#A46139"/>
</svg>
