<svg width="120" height="120" viewBox="0 0 120 120" fill="none" xmlns="http://www.w3.org/2000/svg">
<path d="M28.4246 43.2338C27.8846 40.6538 26.7147 39.8438 26.0547 41.5538C25.2447 43.7138 25.8747 46.1738 27.2547 46.1738C28.5447 46.1738 28.8746 45.3338 28.4246 43.2338Z" fill="#A46139"/>
<path d="M89.1145 92.7642C87.0445 91.8942 78.7344 89.0442 75.5544 88.1142C71.7744 87.0042 71.8945 87.0942 71.7745 85.1142C71.2345 73.7442 70.6646 71.4342 69.4946 72.6342C69.1946 72.9342 69.2244 78.6941 69.5544 82.9541C69.9744 88.2341 70.2144 88.4742 76.6044 90.3642C80.6844 91.5642 82.2745 92.2241 83.8645 92.8241C73.3645 92.8241 52.4546 92.8542 52.4546 92.7342C52.4546 92.6742 54.8545 91.5041 57.7645 90.0941C64.2445 86.9741 63.6146 87.9941 63.4046 80.9741C63.0746 70.8941 63.1046 70.9541 58.7546 69.2741C55.6946 68.1041 52.2146 66.0942 50.3546 64.4441C48.8846 63.1541 48.7045 63.0642 48.3445 63.6342C47.2345 65.3742 42.1345 65.8242 39.3745 64.4441C27.7645 58.5341 31.0945 37.6841 43.1245 41.0441C44.8345 41.5241 45.2846 41.5541 45.7346 41.2241C47.9546 39.6941 64.3046 38.7642 73.8447 38.7342C74.6847 38.7342 82.4845 39.6342 77.0245 37.5942C71.5345 35.5242 54.3746 35.4041 46.6046 38.5241C45.9146 38.7941 45.9446 36.0641 46.6346 35.3741C47.9546 34.1141 58.5445 32.4042 69.1645 32.9442C74.5945 33.2142 79.5446 34.3842 82.1846 35.1942C83.0246 35.4642 83.6245 36.2442 83.6245 37.1442V37.9541C83.6245 40.2941 84.5245 42.2741 85.5745 42.2741C86.0545 42.2741 86.3846 41.3442 86.1446 40.7142C85.6946 39.5742 90.5846 36.5741 92.8946 36.5741C101.205 36.5741 100.664 50.0441 95.8645 57.7541C91.4545 64.8341 88.4546 65.9741 80.4446 63.5741C76.0646 62.2541 71.4446 61.9241 58.6046 63.5441C54.9446 64.0242 56.0545 65.4342 60.7645 65.3442C72.1345 65.1041 78.3445 65.3142 77.7745 65.9142C77.1145 66.6342 74.1144 68.2542 72.1044 68.9441C68.9244 70.0541 70.6044 72.5442 73.3044 71.2842C75.3144 70.3242 78.7045 68.2241 80.1745 66.8741C81.4345 65.7341 81.5546 65.6742 82.1846 66.0642C89.2946 70.5942 96.9444 65.6441 100.604 54.0942C104.534 41.6742 96.5845 30.7242 87.3745 35.9142L85.7544 36.8142L85.4245 35.8241C84.8845 34.1741 83.5945 32.9742 81.7645 32.3142C72.9445 29.2542 53.4146 29.1042 44.9846 33.5142C43.8446 34.1142 43.1245 35.3141 43.1245 36.6041C43.1245 36.6641 43.1245 39.3042 43.1245 39.2142L42.2846 39.0041C30.3746 36.0041 23.6245 52.8641 32.7445 62.8541C36.4045 66.8741 41.8946 68.2841 47.2046 66.5741L49.0346 65.9741L50.0245 66.9642C51.4945 68.4642 55.3045 70.5641 58.2145 71.4941L60.8245 72.3041C61.1545 75.0041 61.1846 74.6141 61.0046 86.4041C58.9946 87.3041 47.9546 92.1642 45.7046 92.8842C43.3046 93.6342 44.0245 95.3441 45.8245 95.4041C48.2545 95.4941 56.0845 95.5541 65.1745 95.5541C78.1045 95.5541 89.7445 95.9142 89.7145 95.9142C90.9745 96.0642 91.5145 93.7842 89.1145 92.7642Z" fill="#A46139"/>
<path d="M48.4347 74.194C48.0747 72.754 46.0947 73.144 46.3347 74.614C46.5747 76.114 45.2847 78.304 43.6347 77.344C41.9547 76.414 41.9846 73.474 45.3446 73.444C45.7046 73.444 46.2146 73.294 46.4546 73.144C47.6246 72.364 44.6246 71.584 43.0046 72.244C40.7546 73.174 40.3046 77.104 42.3146 78.154C45.2546 79.654 49.1547 77.134 48.4347 74.194Z" fill="#A46139"/>
<path d="M44.5347 44.5841C40.1547 41.4041 33.9447 43.6841 34.1847 50.8541C34.4547 58.1441 39.3147 62.7041 45.9747 61.8941C48.3747 61.5941 48.4347 61.5341 47.6847 59.1641C44.1747 47.6441 46.2147 45.8141 44.5347 44.5841ZM43.4847 60.1241C39.5847 58.8341 37.6947 55.9541 37.4847 51.0641C37.2747 45.6041 38.4146 43.9241 41.2946 45.3941L42.7347 46.1141L42.7946 48.4841C42.8546 51.1241 43.7247 55.9541 44.6547 58.6241C45.3747 60.7241 45.3747 60.7541 43.4847 60.1241Z" fill="#A46139"/>
<path d="M26.7746 34.954C28.2146 36.034 29.0246 34.984 29.0246 32.074C29.0246 27.994 27.9146 25.864 26.5946 27.454C25.9046 28.294 26.0546 34.414 26.7746 34.954Z" fill="#A46139"/>
<path d="M88.8145 30.694C91.0045 30.334 92.3546 27.2739 90.8846 25.9539C89.9846 25.1439 89.5944 25.324 89.8044 26.464C90.0444 27.724 88.8145 29.614 87.3745 28.894C85.9045 28.174 85.7846 25.204 89.2346 25.174C89.9546 25.174 90.2245 24.7539 89.7145 24.4539C88.0945 23.4639 85.3645 24.124 84.4645 26.134C83.4445 28.354 85.3945 31.264 88.8145 30.694Z" fill="#A46139"/>
<path d="M28.1545 37.9238C28.1545 38.8238 31.4245 38.7338 35.1145 37.7438C38.5045 36.8438 35.2645 35.7638 31.6045 36.5738C29.0845 37.1438 28.1545 37.5038 28.1545 37.9238Z" fill="#A46139"/>
<path d="M19.3046 37.1438C18.1346 37.3838 17.9246 38.2838 19.0046 38.5538C20.2946 38.8838 25.6646 38.5238 26.2046 38.0738C27.4046 37.0538 22.6046 36.4238 19.3046 37.1438Z" fill="#A46139"/>
<path d="M91.7844 76.5642C93.1044 76.9242 93.5244 76.3242 93.5244 74.1342C93.5244 71.2842 93.3444 70.7742 92.3244 70.7742C91.7244 70.7742 91.4543 70.9542 91.3043 71.4342C90.8543 73.2642 91.1244 76.3842 91.7844 76.5642Z" fill="#A46139"/>
<path d="M85.1847 61.5037C92.1147 65.0437 100.575 49.7437 95.6847 42.4837C94.3647 40.5337 91.8146 39.6037 89.8046 40.3237C88.0046 40.9837 84.6446 44.4937 85.0046 45.3937C85.3946 46.4437 84.5246 53.1337 83.6546 55.7737C82.3646 59.6137 82.5147 60.1237 85.1847 61.5037ZM85.3046 58.1137C86.0846 55.8637 86.9247 50.6137 86.9247 47.9437C86.9247 43.5037 91.3948 39.8137 93.7948 42.2437C96.0748 44.5237 93.7646 54.0937 89.9546 58.2637C87.7046 60.7237 84.4346 60.6337 85.3046 58.1137Z" fill="#A46139"/>
<path d="M90.8546 83.5239C89.8346 86.1639 90.8848 89.0139 92.7448 88.6239C94.1548 88.3539 94.4247 86.2839 93.3747 83.7339C92.8647 82.4439 91.3046 82.3239 90.8546 83.5239Z" fill="#A46139"/>
<path d="M100.395 79.6537C99.1047 79.3837 94.5146 79.2937 93.8846 79.5337C91.6046 80.3737 96.8245 81.6937 99.8545 81.0337C101.084 80.7637 101.445 79.8637 100.395 79.6537Z" fill="#A46139"/>
<path d="M85.2145 79.3539C84.6745 79.5639 84.7344 80.2539 85.3044 80.4639C86.7444 81.0339 91.1245 80.5839 91.1245 79.8939C91.1545 79.2339 86.5945 78.8139 85.2145 79.3539Z" fill="#A46139"/>
<path d="M74.3845 43.2342C73.9045 42.3642 66.7645 41.8241 61.1545 42.2741C56.4745 42.6341 52.0344 43.5341 49.8744 44.4041C47.8344 45.2441 48.3145 46.5341 50.3545 46.1741C53.2045 45.6641 64.1243 44.6441 67.3043 44.6441C73.3943 44.6141 74.9545 44.3142 74.3845 43.2342Z" fill="#A46139"/>
</svg>
