<svg width="63" height="63" viewBox="0 0 63 63" fill="none" xmlns="http://www.w3.org/2000/svg">
<path d="M17.2401 51.2785C16.4928 52.5395 19.4351 54.1741 29.7565 58.284C40.685 62.6274 43.2537 63.1878 43.5807 61.4598C44.001 59.0779 18.501 49.2703 17.2401 51.2785Z" fill="currentColor"/>
<path d="M32.4651 1.63318C28.542 -0.328342 27.7013 0.0919783 20.836 7.42438C13.7371 14.9903 12.7096 16.6249 14.0173 18.0727C16.3992 20.6881 18.9211 19.287 28.1684 10.3667C34.987 3.78153 35.3607 3.08098 32.4651 1.63318Z" fill="currentColor"/>
<path d="M47.4102 25.9656C44.6081 24.5178 43.3004 24.5645 38.3031 26.2458C23.4982 31.2898 12.523 33.7183 18.034 36.4271C20.2757 37.548 23.1246 36.8941 40.6383 31.57C50.3058 28.581 51.1465 27.9271 47.4102 25.9656Z" fill="currentColor"/>
</svg>
