<svg width="40" height="40" viewBox="0 0 40 40" fill="none" xmlns="http://www.w3.org/2000/svg">
<path d="M11.6666 10.3337V29.667C11.6666 31.5338 11.6666 32.4668 12.0299 33.1798C12.3495 33.807 12.8591 34.3175 13.4863 34.637C14.1986 35 15.1316 35 16.9948 35H23.0051C24.8683 35 25.7999 35 26.5123 34.637C27.1395 34.3175 27.6508 33.807 27.9703 33.1798C28.3333 32.4675 28.3333 31.5358 28.3333 29.6726V10.3282C28.3333 8.46499 28.3333 7.532 27.9703 6.81966C27.6508 6.19245 27.1395 5.68289 26.5123 5.36331C25.7992 5 24.8671 5 23.0003 5H17.0003C15.1334 5 14.1993 5 13.4863 5.36331C12.8591 5.68289 12.3495 6.19245 12.0299 6.81966C11.6666 7.5327 11.6666 8.46682 11.6666 10.3337Z" stroke="white" stroke-width="2" stroke-linecap="round" stroke-linejoin="round"/>
</svg>
