<svg width="116" height="118" viewBox="0 0 116 118" fill="none" xmlns="http://www.w3.org/2000/svg">
<path fill-rule="evenodd" clip-rule="evenodd" d="M29.2986 32.0838C25.0914 33.7972 28.6981 36.0596 32.4281 35.7493C35.5504 35.4875 41.3502 34.1719 53.8228 31.298C69.0274 27.8043 75.5802 26.4964 76.6432 26.7018C79.2892 27.2624 81.3032 31.2702 84.5859 42.6246C85.7627 46.6437 87.6539 52.6438 88.8027 55.9549C92.4549 66.6005 91.6031 67.9099 77.9011 71.5984C72.6117 73.0215 65.7734 75.0191 62.7307 76.0218C48.5069 80.7217 39.413 82.5166 33.9073 81.6225C29.3192 80.8774 29.2212 79.471 28.4498 76.6547C26.9035 71.2014 24.4771 59.9206 22.7022 49.5635C21.2188 40.8814 21.3799 39.059 23.8227 37.1655C25.3305 36.0199 24.5399 35.2617 22.4577 35.8233C19.3442 36.7081 17.1474 38.3226 17.812 43.3954C18.6106 49.6433 22.4888 84.0788 29.8586 85.3983C34.6953 86.2656 42.8006 86.3467 45.8267 85.6603C47.9281 85.1836 48.3835 87.5805 46.4266 88.6941C41.9112 91.1917 46.086 93.8164 52.532 92.6221C65.573 90.1103 84.2449 84.7587 84.1336 83.4892C84.0224 82.2197 80.6549 80.0369 79.226 80.3611C78.7636 80.4659 78.3441 79.9806 78.1611 79.1738C77.901 78.0274 77.5351 76.4139 78.8379 76.1183C84.4277 74.8503 87.3538 73.9187 88.9483 73.1552C96.7392 69.5128 95.804 63.8317 94.9783 60.5812C91.6501 47.2727 86.2712 35.0543 85.5874 32.0396C84.3606 26.8264 80.1693 22.3749 73.485 22.9089C70.79 22.7166 33.4638 30.38 29.2986 32.0838ZM57.132 53.0936C56.5025 52.656 50.3847 48.2844 48.722 47.1883C46.6459 45.8287 45.0479 46.7715 42.1944 50.9459C40.7401 53.1062 38.4278 56.3543 37.0417 58.2313C32.2296 64.6804 32.2873 67.0782 37.2046 65.9627C38.8857 65.5814 39.5495 64.8057 43.3758 58.491C48.3263 50.3139 47.7475 50.4899 54.6314 54.7323C59.2519 57.5684 58.7992 57.7158 63.8372 51.4833C68.0059 45.3141 70.2805 41.3157 73.2286 36.5842C76.1442 31.9046 69.9494 31.4794 67.4786 34.8079C64.548 38.6425 57.1644 53.0416 57.132 53.0936ZM70.2964 48.0091C69.9829 50.1339 73.3182 63.0837 74.3418 63.6998C76.8731 65.3132 77.1226 60.5687 74.9931 51.7654C73.8014 46.9014 70.7832 44.5056 70.2964 48.0091ZM47.1662 58.8367C46.6531 62.614 49.9033 71.8775 52.4451 70.8098C54.9869 69.7421 50.8007 59.6641 49.8655 58.2689C49.2369 57.2507 47.336 57.6374 47.1662 58.8367ZM64.493 55.9331C63.9808 56.9868 64.7593 63.7304 65.6262 65.4089C67.1471 68.4124 70.1494 66.2581 69.3499 62.7338C68.0111 56.8317 65.6794 53.5656 64.493 55.9331ZM41.6097 65.9011C41.1238 66.681 42.4546 71.3794 43.4423 72.2269C45.211 73.7901 46.1181 72.3343 45.3765 69.0648C44.5639 65.6774 42.7015 64.0908 41.6097 65.9011ZM56.1094 62.612C55.2671 63.9639 57.0541 68.3356 58.5435 68.6674C60.9084 69.1578 61.0162 66.3207 58.7501 62.3701C58.3666 61.6534 56.5953 61.8321 56.1094 62.612ZM71.1426 78.623C72.9296 78.7087 72.6459 80.3803 73.1319 81.7434L53.7919 86.4876C53.763 86.3602 53.3384 82.9295 53.3866 83.1418C54.7219 82.7942 66.9205 79.4914 68.5727 78.9827C69.2259 78.7452 70.4316 78.6057 71.1426 78.623Z" fill="#A46139"/>
</svg>
