<svg width="139" height="139" viewBox="0 0 139 139" fill="none" xmlns="http://www.w3.org/2000/svg">
<path fill-rule="evenodd" clip-rule="evenodd" d="M36.233 71.9093C37.8357 74.3919 40.2222 75.6895 46.5389 77.4326C48.3355 77.9227 49.8645 78.5084 49.9481 78.7426C50.1988 79.4449 52.0954 80.9553 54.0426 81.1276C55.0557 81.2186 56.4675 81.582 57.2273 81.9141C60.3378 82.9157 59.5307 80.3377 66.5784 82.6493C77.3242 86.1299 82.437 87.2468 84.7952 86.6692C87.7008 85.9337 104.291 85.2916 106.533 83.4356C108.112 82.1555 107.716 79.8831 105.669 77.1066C102.002 72.1174 91.0732 64.7421 88.7537 63.4203C85.7744 61.7307 71.2177 59.1956 70.8858 58.3712C70.5179 57.4466 68.8888 55.8408 68.4349 55.6257C66.347 54.636 57.3903 52.8927 55.3403 53.172C54.4779 53.2913 53.8255 53.7882 52.8889 54.1225C52.3202 54.3255 50.7172 53.9546 48.0915 53.044C42.8739 51.2105 42.7617 51.213 39.44 54.5859C33.6905 60.5601 32.6192 66.2223 36.233 71.9093ZM36.3413 66.93C36.017 63.8026 37.4464 60.1999 40.0393 57.4266C42.589 54.744 43.4658 54.7705 51.548 57.6555C51.7294 57.7417 51.0031 58.4536 50.3147 59.378C47.5929 62.9519 46.3782 67.6845 47.6699 72.9935C48.1734 75.0387 49.1099 75.2325 43.1972 73.4586C41.1281 72.8393 39.9743 72.4593 39.2146 72.1271C37.989 71.5463 36.661 69.833 36.3413 66.93ZM49.6388 71.0084C49.4845 65.8215 49.8694 63.8364 53.9533 59.3238C56.5773 56.4263 56.2692 56.7249 59.3485 57.8506C60.5598 58.2859 60.5836 58.3526 60.0651 58.8017C58.1103 60.4044 57.145 61.5032 55.9858 64.0667C54.2288 68.6537 55.378 69.337 57.6412 65.3236C60.2631 60.7298 62.1986 59.2847 65.4502 59.5195C67.352 59.6702 68.1116 60.0026 67.4689 60.4206C60.427 65.31 58.7751 71.1415 60.1692 76.527C60.7447 78.773 60.3504 79.2532 58.5825 78.5264C57.517 78.0773 57.503 76.8754 56.9062 74.1469C56.6556 72.9164 55.0261 73.4225 55.1572 74.8466C55.3311 76.7078 54.9656 77.4794 52.4929 76.8914C50.2902 76.3198 49.7503 75.2301 49.6388 71.0084ZM52.3668 73.5798C52.9951 74.0719 53.8911 73.941 53.8844 71.492C53.8801 69.1553 52.9626 68.2759 52.026 68.6102C51.6582 68.7415 51.1849 69.2121 51.3067 70.1869C51.4354 71.4985 52.0012 73.2953 52.3668 73.5798ZM61.5986 73.9805C61.7015 73.5291 61.7228 73.4835 64.0044 74.0646C69.6069 75.4967 71.7879 76.1136 73.1475 76.6467C73.8953 76.9454 76.0071 77.4737 77.8348 77.8397C83.8243 78.9829 86.3039 80.9636 84.2225 82.9513C83.4961 83.6629 82.4568 83.9211 81.5081 83.694C78.787 83.0436 63.7286 79.6312 62.5463 77.9038C61.5503 76.4867 61.4337 74.6805 61.5986 73.9805ZM62.175 69.3623C63.8673 65.9676 65.3872 65.048 68.4546 66.1404C74.1931 68.1651 83.883 71.1177 86.3341 72.8072C87.9872 73.9519 85.0384 75.8341 82.8763 76.1154C79.9637 76.5141 75.5057 75.5409 67.1251 72.8753C62.2514 71.3716 61.3029 71.1445 62.175 69.3623ZM69.2078 62.9677C69.9077 62.6047 70.7679 61.8451 72.1586 62.2539C73.1643 62.5361 76.865 63.2895 79.8321 63.8896C85.0213 64.9035 89.0586 67.2337 88.4184 67.7639C87.6346 68.4208 82.6723 68.0426 79.5976 67.1413C72.022 64.8295 66.4194 64.4534 69.2078 62.9677ZM86.5505 77.7458C89.1574 76.7022 89.7334 74.724 88.0998 72.3656C87.0679 70.8482 87.0343 70.8602 88.8454 70.968C89.6552 71.0182 90.7184 70.8273 91.23 70.5695C92.2408 70.0202 92.5057 70.3403 95.0642 72.3308C95.4296 72.6154 95.4965 73.1196 95.2121 73.4849C93.6491 75.5513 93.2809 77.7948 93.6985 80.0216C94.1162 82.2484 94.4365 81.9831 90.8646 82.5416L87.8302 83.0212C87.675 82.5864 87.4697 80.8494 86.2634 79.5829C85.7689 79.0428 85.2626 78.4692 85.2626 78.4692C85.2626 78.4692 85.8145 78.0085 86.5505 77.7458Z" fill="#A46139"/>
</svg>
