<svg width="146" height="155" viewBox="0 0 146 155" fill="none" xmlns="http://www.w3.org/2000/svg">
<path d="M39.0591 97.1292C36.3337 92.646 37.8369 87.2923 38.9672 83.4638C43.3168 68.8685 49.2812 55.2569 51.1613 49.5425C53.4159 42.7881 55.7842 40.3039 58.632 38.8175C60.3948 37.8788 60.08 36.7736 58.1101 36.8687C55.8394 36.994 54.2022 37.8447 52.1573 41.1139C46.9391 49.5104 36.6298 78.9789 34.6537 87.4405C33.5558 92.1522 34.7369 96.3211 37.6941 98.0372C39.679 99.2719 40.1435 98.94 39.0591 97.1292Z" fill="#A46139"/>
<path d="M48.4181 82.8246C47.3241 81.043 47.2662 81.1209 52.9912 78.2548C63.7342 72.9038 72.9054 70.1698 78.2567 81.0098C80.409 85.3691 80.8119 86.6002 82.1055 92.2926C82.4216 93.689 82.2001 94.1654 81.441 93.6248C80.7597 93.1422 58.9996 85.8214 52.7125 83.9144C49.9236 83.0615 50.3569 84.6903 52.2427 85.4401C56.9574 87.3143 69.7669 91.6903 78.5349 95.0921C86.2046 98.1001 91.3194 100.526 95.4947 100.995C103.379 101.877 101.132 100.556 108.815 82.1137C111.008 76.8252 113.949 67.001 113.769 65.6817C112.764 59.4059 101.025 53.1525 78.9982 47.1333C71.2932 45.0183 66.4077 44.1541 66.1775 44.8538C65.8418 45.8742 69.4092 47.2095 79.6595 49.9357C86.8494 51.8489 90.1829 53.0103 98.3593 56.5405C106.283 59.9552 110.621 62.3843 111.209 63.7408C112.198 66.0373 112.192 66.8428 111.161 68.9918C109.852 71.6952 106.866 79.986 106.328 81.4245L105.914 79.8344C102.74 67.3844 90.5683 64.7045 77.3737 73.5786L76.3379 74.2717L74.9358 73.1319C69.3466 68.5142 59.6454 69.7168 50.392 76.2364L47.5848 78.1885L47.9176 76.3916C48.2599 74.5656 52.3671 62.5724 56.4396 51.5694C58.8695 44.9697 59.2467 44.6091 61.352 44.3971C62.8171 44.2652 63.0368 43.4004 61.579 42.9208C59.509 42.2398 58.347 42.9237 56.6569 45.1141C53.8275 48.8037 44.1002 73.1647 44.5897 79.2387C44.7737 81.6256 45.303 82.9629 47.0534 83.8297C48.8334 84.803 49.356 84.3934 48.4181 82.8246ZM78.2877 76.4965C78.5585 76.2625 89.1031 72.3002 90.3733 71.9749C93.8444 71.049 97.9047 71.8679 100.378 73.9742C102.092 75.4428 103.079 77.0598 103.982 79.7157C105.387 83.9906 105.386 83.7965 103.596 87.6664C102.729 89.5139 101.44 92.3531 100.718 93.9574C97.9665 100.16 97.1777 99.5132 84.1707 94.2645L83.5867 91.3259C82.9826 88.2514 81.3833 83.7833 79.2597 79.3365C78.6038 77.8929 78.1231 76.6039 78.2877 76.4965Z" fill="#A46139"/>
<path d="M119.326 69.4165C121.691 66.0587 120.499 59.1722 114.098 55.4507C109.954 53.0209 100.731 49.8248 75.9275 41.1473C72.244 39.8707 67.9486 38.4898 66.3746 38.0689C63.4794 37.3425 62.3731 37.3663 62.9197 38.16C63.6616 39.2442 66.8015 40.5034 80.8646 45.2919C115.172 56.9994 117.808 58.4159 118.124 64.9176C118.178 66.1307 111.48 85.8986 109.335 90.8473C108.2 93.5111 105.999 99.023 104.481 103.144C100.073 115.071 98.1091 116.816 92.1109 114.325C89.2138 113.113 69.0408 107.058 53.2786 102.13C37.0208 97.04 42.2093 101.009 44.6791 102.145C54.0037 106.408 94.9312 118.226 99.0829 117.588C107.27 116.372 119.085 69.7571 119.326 69.4165Z" fill="#A46139"/>
<path d="M70.7518 50.495C62.455 50.9641 61.6844 62.4395 69.77 65.0674C75.6689 66.9759 81.8943 60.5263 79.1992 56.3439C78.0077 54.4655 77.5356 55.3118 77.6107 57.146C77.8436 62.1339 71.4698 65.4005 67.5547 61.9799C63.406 58.3854 69.7574 51.848 75.5593 53.7569L76.6282 54.1409C77.3766 54.4195 77.9648 53.4175 77.361 52.8957C75.9681 51.6296 72.9254 50.3701 70.7518 50.495Z" fill="#A46139"/>
</svg>
