<svg width="223" height="122" viewBox="0 0 223 122" fill="none" xmlns="http://www.w3.org/2000/svg">
<path fill-rule="evenodd" clip-rule="evenodd" d="M191.819 35.3123C169.533 37.1323 175.438 42.8592 187.84 41.1721C208.3 38.3802 218.645 49.0326 210.43 64.5044C204.598 75.4616 182.896 86.2285 161.926 88.5566C140.051 90.9803 103.268 85.8152 79.3802 76.7165C77.0773 75.8274 55.5789 68.3272 51.8408 66.9506C36.1984 61.1467 27.4919 59.3684 20.8594 60.7657C11.9075 62.6641 7.53083 75.0015 13.2514 82.2092C15.7849 85.4156 16.5342 85.0645 15.2382 81.3486C9.92218 66.0781 27.1537 61.0968 51.6424 70.8278C64.0134 75.7511 73.674 78.6406 80.318 81.2681C139.893 104.844 212.762 93.9084 217.657 60.4501C219.52 47.8493 205.487 34.2032 191.819 35.3123Z" fill="#A46139"/>
</svg>
