<svg width="211" height="211" viewBox="0 0 211 211" fill="none" xmlns="http://www.w3.org/2000/svg">
<path d="M101.634 122.146C103.302 118.462 97.3238 115.543 92.1105 117.559C89.052 118.74 80.2241 125.969 80.4326 127.082C81.7533 133.894 97.9494 130.14 101.634 122.146Z" fill="#2B3F2C"/>
<path d="M145.913 107.131C135.417 111.51 74.6642 155.65 70.7021 161.697C68.5472 164.964 75.3594 168.092 79.8081 165.937C85.0214 163.505 129.648 129.236 149.111 112.344C151.822 110.05 149.18 105.81 145.913 107.131Z" fill="#2B3F2C"/>
<path d="M11.8249 103.448C2.0238 109.982 0.216482 112.484 3.83107 114.291C10.9213 117.906 15.509 112.484 24.1979 106.854C30.1063 102.961 19.6797 98.1646 11.8249 103.448Z" fill="#2B3F2C"/>
<path d="M42.3409 117.002C49.7786 113.388 60.4138 106.02 72.9953 95.593C78.3477 91.1443 89.3305 83.0803 97.3938 77.6584C111.783 67.9963 113.381 66.6061 111.088 65.772C109.141 65.0073 108.724 65.2166 85.0903 79.4664C61.3869 93.7857 44.0091 105.047 35.9458 111.442C25.7972 119.435 32.5398 121.799 42.3409 117.002Z" fill="#2B3F2C"/>
<path d="M38.31 95.1062C43.4538 92.2562 53.3244 85.3051 74.3863 70.5687C103.512 50.2019 121.654 38.4545 124.434 35.4655L126.52 33.2411C123.531 30.8083 121.723 28.5839 112.131 33.5887C99.2018 40.2618 54.1586 72.3058 37.2673 86.347C27.7443 94.1323 30.5248 99.4159 38.31 95.1062Z" fill="#2B3F2C"/>
<path d="M29.5501 139.524C22.3209 145.293 22.1124 145.571 24.8233 147.587C30.1062 151.48 49.5694 142.026 46.4413 137.021C43.4524 132.225 37.5439 133.059 29.5501 139.524Z" fill="#2B3F2C"/>
<path d="M199.158 21.8407C194.153 24.3431 90.9983 94.0629 59.2317 118.322C45.677 128.679 54.2964 130.278 63.6804 125.76C75.7058 119.991 81.6143 111.997 165.792 56.0403C199.505 33.5881 208.889 26.2894 208.889 22.3968C208.889 20.0334 203.329 19.7554 199.158 21.8407Z" fill="#2B3F2C"/>
<path d="M151.195 84.8874C157.382 79.257 172.605 67.8572 176.914 64.7987C178.722 63.3389 173.995 62.4352 171.562 63.756C130.203 86.4167 92.4581 116.794 104.97 116.794C110.183 116.794 134.929 99.8323 151.195 84.8874Z" fill="#2B3F2C"/>
<path d="M172.744 85.027C155.227 94.8281 151.89 98.303 157.729 101.083C162.317 103.238 163.707 102.613 176.289 93.0896C192.763 80.5776 186.507 77.3113 172.744 85.027Z" fill="#2B3F2C"/>
<path d="M90.3729 179.215C82.5182 184.289 81.2669 187.348 86.1328 189.711C91.3461 192.283 99.1314 188.808 102.815 182.343C104.692 178.937 94.6826 176.435 90.3729 179.215Z" fill="#2B3F2C"/>
<path d="M171.701 116.933C164.055 122.494 146.191 136.257 127.562 148.699C101.773 165.938 96.6985 171.569 104.553 173.863C109.35 175.253 119.985 167.885 139.031 149.534C145.913 142.861 163.777 127.916 173.23 120.617C178.374 116.655 176.845 113.179 171.701 116.933Z" fill="#2B3F2C"/>
</svg>
