<svg width="153" height="153" viewBox="0 0 153 153" fill="none" xmlns="http://www.w3.org/2000/svg">
<path fill-rule="evenodd" clip-rule="evenodd" d="M77.185 36.3873C67.1249 35.4063 65.2851 36.1622 61.7017 42.8004C44.3692 74.8097 39.6184 96.3181 39.9856 94.9202C39.4513 96.9337 39.5497 99.0309 40.1892 101.02C41.7502 105.748 43.8541 107.772 49.5447 110.039C62.8054 115.342 76.5446 115.46 83.9517 114.35C90.4683 113.365 88.905 111.666 91.3467 107.266C98.5458 94.4721 112.099 64.4738 112.756 53.2232C112.858 51.426 112.175 51.1589 111.552 50.3846C109.324 47.6868 108.802 44.4659 105.549 42.7742C98.4034 39.1323 80.9212 36.7478 77.185 36.3873ZM100.198 43.5609L102.485 44.4529C103.359 44.8447 103.866 45.7687 103.682 46.684L103.089 49.6378C100.475 62.6596 87.5973 91.0188 80.5427 99.2107C75.1705 105.489 74.0385 105.738 61.1333 103.407C45.0077 100.516 42.6621 98.8333 44.5565 91.7697C46.1836 85.6043 54.1869 65.7878 58.9876 56.1048C59.8541 54.3743 61.5127 50.8556 62.7212 48.285C66.5637 40.141 73.4149 36.8422 74.8089 42.4021C75.1158 43.6756 75.6978 44.4417 77.6777 45.1422C81.1639 46.318 93.5206 47.7168 93.4791 47.7085C94.7021 47.8674 95.8594 47.2776 96.5006 46.2377C97.4006 44.7737 98.7918 43.0189 100.198 43.5609ZM95.138 43.7569C94.6546 44.4389 93.9552 45.1207 93.2144 45.1451C91.9079 45.1858 89.595 44.8513 85.5343 44.1659L77.9792 42.779C77.6047 42.7038 77.2638 42.4622 77.1143 42.1292L76.2498 40.3977C76.1008 39.4156 76.2008 39.3491 77.8234 39.4585C79.7958 39.5515 92.0523 41.6659 95.0224 42.392C95.6883 42.5257 96.0628 42.3845 95.138 43.7569ZM86.9439 108.069C86.5357 108.81 85.4702 108.726 85.138 108.01C84.7141 107.103 84.2076 105.962 83.7592 104.747C83.4768 103.998 83.5522 103.191 83.9855 102.542C93.5833 87.2868 97.5338 78.8182 107.316 50.7894C107.408 50.5479 107.607 50.4151 107.865 50.4237C108.123 50.432 108.314 50.557 108.397 50.7901L109.32 53.0961C109.66 53.9866 109.768 54.9604 109.534 55.9088C106.854 67.9651 91.1851 100.525 86.9439 108.069ZM81.9481 111.827C81.3656 111.927 78.5608 112.1 75.9979 112.148C65.8202 112.398 51.967 108.968 46.9177 106.093C46.5685 105.893 43.2765 100.948 45.0403 101.432C45.8557 101.682 49.4663 103.099 51.0887 103.641C59.5915 106.344 70.3253 108.066 76.4841 107.138C79.7466 106.625 79.8565 104.353 80.4964 105.26C80.5713 105.319 84.5531 111.355 81.9481 111.827Z" fill="currentColor"/>
</svg>
