<svg width="287" height="287" viewBox="0 0 287 287" fill="none" xmlns="http://www.w3.org/2000/svg">
<path d="M135.95 89.5661C134.213 90.0234 126.163 90.7551 118.023 91.2125C95.5222 92.4015 97.3515 93.7735 81.8022 109.506C76.4058 114.994 77.4118 119.293 74.7593 129.811C68.3567 155.239 92.5953 155.148 105.584 138.775C116.377 125.146 123.237 120.756 141.255 116.091C157.902 111.792 162.476 108.317 162.476 100.085C162.476 91.121 149.853 85.9989 135.95 89.5661ZM139.06 110.055C120.31 114.536 107.687 120.848 100.096 129.994C88.1134 144.354 83.8145 147.373 83.1742 141.61C82.8084 138.684 88.022 121.945 90.0342 119.293L96.8028 110.42C106.224 97.981 105.584 98.4383 121.682 97.6151C129.365 97.2492 137.505 96.5175 139.701 96.0602C153.969 93.0418 152.689 106.762 139.06 110.055Z" fill="#334B35"/>
<path d="M262.356 101.182C256.868 94.048 248.545 82.3412 243.88 75.2983C215.983 33.4066 195.677 26.2713 144.181 40.4486C123.601 46.1195 121.04 45.9366 88.3869 34.8691C46.4953 20.6918 -1.52464 49.5953 9.26842 88.6514C16.037 113.256 16.1284 112.891 9.35991 136.581C-0.0611553 169.875 0.579141 184.052 12.5612 206.553C48.599 274.146 134.486 271.584 157.993 202.344C165.31 180.85 168.054 175.363 174.914 168.594C186.988 156.703 191.287 156.429 206.013 167.222C226.867 182.497 245.618 186.43 263.637 179.296C291.351 168.32 290.985 138.501 262.356 101.182ZM217.446 162.374C185.89 139.782 159.365 153.044 144.273 199.051C135.035 227.223 130.096 233.717 110.796 243.413C77.7768 259.968 36.1595 235.365 20.5188 190.089C14.7564 173.259 15.9455 158.806 25.7324 128.622C30.4886 113.988 30.6716 110.512 27.4702 98.5298C22.6225 80.328 22.3482 78.2252 23.8116 71.1822C30.2143 40.6325 56.0078 33.2236 89.7589 44.1997C119.668 53.9866 126.986 54.0771 157.444 45.6631C191.287 36.2421 205.19 41.913 226.684 73.9263C236.38 88.3779 241.776 95.8782 251.106 107.769C288.698 155.789 264.003 195.76 217.446 162.374Z" fill="#334B35"/>
<path d="M202.263 88.1024C178.939 69.9921 183.695 59.382 144.182 62.126C125.523 63.4065 133.755 67.2481 97.5339 70.3579C71.1915 72.6446 49.0566 77.9497 49.0566 104.658C49.0566 112.25 48.5993 116.183 47.1359 121.03C36.1598 157.16 52.1665 197.771 77.2283 197.679C93.5093 197.588 103.205 189.813 116.742 165.849C124.974 151.306 136.407 140.147 147.2 136.854C148.847 136.397 158.999 135.665 169.792 135.299C200.982 134.202 210.495 129.261 215.068 111.791C217.538 102.462 215.251 98.1637 202.263 88.1024ZM164.762 131.549C133.663 131.549 123.419 138.225 107.412 168.501C79.0577 222.008 38.4465 183.959 59.5753 123.5C62.6852 114.628 62.8681 113.713 62.2278 106.487C60.6729 87.5536 72.655 79.4131 106.315 76.2118C125.34 74.3825 129.913 72.7361 141.438 69.3518C147.475 67.5224 157.902 67.0651 163.39 68.1627C168.512 69.1689 178.939 82.8889 193.665 94.3221C218.818 113.804 205.098 131.458 164.762 131.549Z" fill="#334B35"/>
</svg>
